<svg id="visual" viewBox="0 0 960 300" width="960" height="300" xmlns="http://www.w3.org/2000/svg" xmlns:xlink="http://www.w3.org/1999/xlink" version="1.1"><path d="M0 121L26.7 112.5C53.3 104 106.7 87 160 90C213.3 93 266.7 116 320 130C373.3 144 426.7 149 480 136C533.3 123 586.7 92 640 81C693.3 70 746.7 79 800 76C853.3 73 906.7 58 933.3 50.5L960 43L960 0L933.3 0C906.7 0 853.3 0 800 0C746.7 0 693.3 0 640 0C586.7 0 533.3 0 480 0C426.7 0 373.3 0 320 0C266.7 0 213.3 0 160 0C106.7 0 53.3 0 26.7 0L0 0Z" fill="#18bc9c"></path><path d="M0 169L26.7 177C53.3 185 106.7 201 160 205.5C213.3 210 266.7 203 320 202.5C373.3 202 426.7 208 480 208C533.3 208 586.7 202 640 192.5C693.3 183 746.7 170 800 164C853.3 158 906.7 159 933.3 159.5L960 160L960 41L933.3 48.5C906.7 56 853.3 71 800 74C746.7 77 693.3 68 640 79C586.7 90 533.3 121 480 134C426.7 147 373.3 142 320 128C266.7 114 213.3 91 160 88C106.7 85 53.3 102 26.7 110.5L0 119Z" fill="#7fd3bc"></path><path d="M0 235L26.7 238C53.3 241 106.7 247 160 250C213.3 253 266.7 253 320 254.5C373.3 256 426.7 259 480 261.5C533.3 264 586.7 266 640 262C693.3 258 746.7 248 800 244C853.3 240 906.7 242 933.3 243L960 244L960 158L933.3 157.5C906.7 157 853.3 156 800 162C746.7 168 693.3 181 640 190.5C586.7 200 533.3 206 480 206C426.7 206 373.3 200 320 200.5C266.7 201 213.3 208 160 203.5C106.7 199 53.3 183 26.7 175L0 167Z" fill="#c1e9dd"></path><path d="M0 301L26.7 301C53.3 301 106.7 301 160 301C213.3 301 266.7 301 320 301C373.3 301 426.7 301 480 301C533.3 301 586.7 301 640 301C693.3 301 746.7 301 800 301C853.3 301 906.7 301 933.3 301L960 301L960 242L933.3 241C906.7 240 853.3 238 800 242C746.7 246 693.3 256 640 260C586.7 264 533.3 262 480 259.5C426.7 257 373.3 254 320 252.5C266.7 251 213.3 251 160 248C106.7 245 53.3 239 26.7 236L0 233Z" fill="#ffffff"></path></svg>